# xmcd
#
# Track frame offsets:
#  150
#  14367
#  31041
#  50574
#  64200
#  82074
#  104205
#  124715
#  138247
#  161059
#  173923
#  199006
#  214644
#  228569
#  251434
#
# Disc length: 3591 seconds
#
# Revision: 0
# Processed by: cddbd v1.4b41PL2 Copyright (c) Steve Scherf et al.
# Submitted via: AltoMP3 Maker 3.0
#
DISCID=d30e050f
DTITLE=The Talleys - Southern Gospel Treasury
DYEAR=1900
DGENRE=
TTITLE0=God's Gonna Send Revival
TTITLE1=Love Will
TTITLE2=I Can Touch Him
TTITLE3=There's Still Power In The Blood
TTITLE4=My Redeemer Is Faithful And True
TTITLE5=Namaan
TTITLE6=Triumphantly The Church Will Rise
TTITLE7=It Runs In The Family
TTITLE8=This Same Jesus
TTITLE9=Typical Day
TTITLE10=Unmerited Favor Of God
TTITLE11=We Are Still The Church
TTITLE12=Wherever I Am
TTITLE13=Hallelujah Praise The Lamb
TTITLE14=He Is Here
EXTD=
EXTT0=
EXTT1=
EXTT2=
EXTT3=
EXTT4=
EXTT5=
EXTT6=
EXTT7=
EXTT8=
EXTT9=
EXTT10=
EXTT11=
EXTT12=
EXTT13=
EXTT14=
PLAYORDER=
